<?xml version="1.0" encoding="utf-8"?>
<!-- Generator: Adobe Illustrator 25.0.0, SVG Export Plug-In . SVG Version: 6.00 Build 0)  -->
<svg version="1.1" id="Layer_1" xmlns="http://www.w3.org/2000/svg" xmlns:xlink="http://www.w3.org/1999/xlink" x="0px" y="0px"
	 viewBox="0 0 260.8 1024" style="enable-background:new 0 0 260.8 1024;" xml:space="preserve">
<style type="text/css">
	.st0{fill:#F4F3F0;}
	.st1{fill:#F5F4F1;}
	.st2{fill:#F4F3EF;}
	.st3{fill:#F8F7F5;}
	.st4{fill:none;}
	.st5{fill:#1A849E;}
	.st6{fill:#02476B;}
	.st7{fill:#2290A4;}
	.st8{fill:#187D9A;}
	.st9{fill:none;stroke:#F4F3EF;stroke-width:0;stroke-linecap:round;stroke-linejoin:round;}
	.st10{fill:#2696A9;}
	.st11{fill:#2A9BAC;}
</style>
<path class="st0" d="M0.3,475.7c1.4-0.4,2.1,0.4,2.7,1.9c-0.9,0-1.7,0-2.5,0C0.3,477,0.3,476.4,0.3,475.7z"/>
<path class="st0" d="M246.4,642.6c-0.1-0.4-0.1-0.8-0.1-1.3c0-1.6,0.7-2,2.6-1c-1.5,0.2-2.3,0.8-2.1,2.2
	C246.7,642.6,246.6,642.6,246.4,642.6z"/>
<path class="st1" d="M261,529.2c-1.2-0.2-1.5-0.9-1.1-2.6c0.3,0.6,0.6,1.1,1,1.7C261,528.6,261,528.8,261,529.2z"/>
<path class="st1" d="M261,524.6c-0.2-0.1-0.5-0.2-0.7-0.4c0.2-0.2,0.4-0.4,0.6-0.5C261,524,261,524.3,261,524.6z"/>
<path class="st0" d="M250.2,642.6c-0.1-0.4-0.1-0.9-0.1-1.3c0.1,0,0.3,0,0.4,0c0,0.4,0.1,0.8,0.1,1.3
	C250.5,642.6,250.4,642.6,250.2,642.6z"/>
<path class="st1" d="M261,572c-0.2-0.1-0.5-0.3-0.7-0.4c0.2-0.2,0.4-0.3,0.6-0.5C261,571.4,261,571.6,261,572z"/>
<path class="st0" d="M14.9,565.3c-0.2-1,0.4-0.9,1-0.8c0.2,0,0.3,0.5,0.4,0.7C15.8,565.3,15.4,565.4,14.9,565.3z"/>
<path class="st0" d="M13.8,579.3c-1.4,0.3-1.5,0.2-1.2-1.1C13,578.5,13.5,578.8,13.8,579.3z"/>
<path class="st0" d="M17,569.5c-0.3,0.1-0.5,0.1-0.8,0.1c0-0.2,0-0.4,0-0.6C16.5,569.1,16.8,569.3,17,569.5z"/>
<path class="st0" d="M13.7,574.1c0.3,0,0.5,0.1,0.6,0.1c0,0.1,0,0.2,0,0.2c-0.5,0-1,0-1.4,0c0-0.1,0-0.1,0-0.2
	C13.1,574.2,13.4,574.2,13.7,574.1z"/>
<path class="st0" d="M16,580.8c-0.3,0-0.6-0.1-0.8-0.1c0-0.1,0-0.2,0-0.3c0.4,0,0.8,0,1.1,0C16.2,580.5,16.2,580.6,16,580.8z"/>
<path class="st0" d="M13.8,581.9c-0.3,0-0.5,0-0.7,0c0-0.1,0-0.2,0.1-0.3C13.4,581.7,13.6,581.8,13.8,581.9z"/>
<path class="st0" d="M13.3,569.4c0.1,0.1,0.2,0.2,0.3,0.3c-0.1,0-0.2,0.1-0.3,0.1C13.2,569.6,13.2,569.5,13.3,569.4z"/>
<path class="st0" d="M16.1,582.7c0.1-0.1,0.2-0.2,0.3-0.3c0,0.1,0.1,0.2,0.1,0.3C16.4,582.8,16.2,582.8,16.1,582.7z"/>
<path class="st2" d="M15.9,546.4c-0.7,0.1-1.3,0.3-1.9,0.2c-0.3,0-0.6-0.4-0.9-0.6c-0.1-0.1,0.1-0.5,0.3-0.6c0.3-0.1,0.7-0.1,1-0.1
	c0.5,0.1,1,0.4,1.5,0.6C16,546,16,546.2,15.9,546.4z"/>
<path class="st2" d="M14.2,536.7c-0.3,0.2-0.5,0.4-0.8,0.5c-0.1-0.1-0.1-0.2-0.2-0.3c0.2-0.3,0.4-0.6,0.8-1.1
	C14.2,536.3,14.2,536.4,14.2,536.7z"/>
<path class="st2" d="M14.4,551.8c-0.2-0.1-0.4-0.3-0.6-0.5c0.1-0.1,0.2-0.2,0.4-0.3C14.3,551.3,14.4,551.5,14.4,551.8z"/>
<path class="st2" d="M13.1,552.8c-0.2-0.1-0.4-0.3-0.6-0.5c0.1-0.1,0.2-0.2,0.4-0.3C13,552.3,13.1,552.5,13.1,552.8z"/>
<path class="st2" d="M25.6,542.3c0.2,0.1,0.4,0.2,0.5,0.4c-0.1,0.1-0.3,0.2-0.4,0.3C25.6,542.8,25.6,542.6,25.6,542.3z"/>
<path class="st2" d="M2,465.5c0.1,0.3,0,0.6,0,0.9c-0.2-0.1-0.4-0.2-0.6-0.3C1.6,465.9,1.8,465.6,2,465.5z"/>
<path class="st3" d="M2.6,445.4c-0.1,0-0.2-0.1-0.2-0.2c0,0,0.1-0.1,0.1-0.1C2.6,445.2,2.6,445.3,2.6,445.4z"/>
<g>
	<path class="st4" d="M131,440.9c0.4,0,0.7,0,1.1,0.1C131.7,440.9,131.4,440.9,131,440.9C131,440.8,131,440.8,131,440.9z"/>
	<path class="st4" d="M128.8,427.7C128.8,427.7,128.8,427.7,128.8,427.7c0.2,0.1,0.3,0.1,0.5,0.2C129.2,427.8,129,427.8,128.8,427.7
		z"/>
	<path class="st4" d="M132.1,440.9c0-0.3-0.1-0.5-0.1-0.8C132,440.4,132,440.7,132.1,440.9L132.1,440.9z"/>
	<path class="st4" d="M104.5,484c0,0.2-0.1,0.5-0.1,0.7C104.4,484.5,104.5,484.3,104.5,484C104.5,484,104.5,484,104.5,484z"/>
	<path class="st4" d="M109.2,550.2C109.2,550.2,109.2,550.2,109.2,550.2C109.2,550.2,109.2,550.2,109.2,550.2c0.3,0,0.8-0.1,0.8-0.2
		C110,550.1,109.5,550.2,109.2,550.2z"/>
	<path class="st4" d="M134,439.9C134,439.8,134,439.8,134,439.9c0.4,0.2,0.7,0.6,1.1,1c-0.4-0.4-0.8-0.7-1.1-1.1
		C134,439.8,134,439.8,134,439.9c-0.3,0-0.6,0-0.9,0C133.4,439.9,133.7,439.8,134,439.9z"/>
	<path class="st4" d="M145.7,429.7C145.7,429.7,145.8,429.7,145.7,429.7c-0.3,0-0.6,0-0.9,0C145.1,429.7,145.4,429.7,145.7,429.7z"
		/>
	<path class="st4" d="M149.7,426c-0.2-0.1-0.4-0.2-0.6-0.3C149.2,425.8,149.4,425.9,149.7,426C149.7,426,149.7,426,149.7,426z"/>
	<path class="st4" d="M145.3,430.2c-0.1-0.1-0.3-0.3-0.5-0.5C145,429.9,145.2,430.1,145.3,430.2z"/>
	<path class="st4" d="M139.4,434.8c0-0.2,0-0.3,0.1-0.5C139.5,434.5,139.4,434.6,139.4,434.8C139.4,434.8,139.4,434.8,139.4,434.8z"
		/>
	<path class="st4" d="M127.2,433.5c-0.2,0.3-0.4,0.6-0.6,0.9c0.2-0.3,0.4-0.5,0.6-0.7C127.2,433.6,127.2,433.6,127.2,433.5z"/>
	<path class="st4" d="M113.2,446.3c-0.1,0-0.2,0.2-0.2,0.4C113,446.4,113.1,446.3,113.2,446.3z"/>
	<path class="st4" d="M115,445.6c-0.2,0.2-0.4,0.4-0.7,0.7c0,0,0,0,0,0C114.6,446,114.8,445.8,115,445.6z"/>
	<path class="st4" d="M106.3,484.7c0.1-0.2,0.1-0.4,0.2-0.7C106.4,484.2,106.3,484.4,106.3,484.7
		C106.3,484.6,106.3,484.6,106.3,484.7z"/>
	<path class="st4" d="M113.7,449.4C113.7,449.4,113.7,449.4,113.7,449.4c0.2,0.2,0.3,0.4,0.7,0.7C114,449.7,113.9,449.6,113.7,449.4
		z"/>
	<path class="st4" d="M122,438.6C122,438.6,122,438.6,122,438.6c0.1,0,0.3-0.1,0.5-0.2C122.3,438.5,122.2,438.6,122,438.6z"/>
	<path class="st4" d="M115.8,443.7C115.8,443.7,115.8,443.7,115.8,443.7c0.1,0.1,0.3,0.2,0.4,0.3C116.1,443.9,116,443.8,115.8,443.7
		z"/>
	<path class="st4" d="M125.6,447.7c-0.2,0.1-0.3,0.2-0.5,0.4C125.3,448,125.4,447.9,125.6,447.7
		C125.6,447.8,125.6,447.8,125.6,447.7z"/>
	<path class="st4" d="M119.1,441.7c-0.1,0.1-0.1,0.2-0.3,0.3c0,0,0,0,0,0.1C118.9,441.9,119,441.8,119.1,441.7z"/>
	<path class="st4" d="M130.8,425.8c-0.1-0.4,0-0.7,0.1-1.3c-0.1,0.6-0.1,1-0.2,1.3c0,0.1-0.1,0.2-0.2,0.4
		C130.6,426,130.6,425.9,130.8,425.8z"/>
	<path class="st4" d="M102.2,458.8c-0.2,0.2-0.3,0.4-0.5,0.5c0.2-0.1,0.3-0.3,0.6-0.5c-2.1-0.1-4.1-0.2-6.1-0.2
		C98.2,458.7,100.2,458.8,102.2,458.8z"/>
	<path class="st4" d="M154.2,427.1c0.3,0.1,0.6,0.2,0.9,0.4C154.8,427.3,154.5,427.2,154.2,427.1C154.2,427,154.2,427,154.2,427.1
		C154.1,427,154.1,427,154.2,427.1c-0.3-0.2-0.5-0.3-0.8-0.5C153.7,426.8,153.9,426.9,154.2,427.1C154.1,427,154.1,427,154.2,427.1z
		"/>
	<path class="st4" d="M70.1,502.2c0,0,0,0.1,0,0.3c0,0,0,0,0,0.1c0.4-0.1,0.6-0.3,0.7-0.6c-0.1,0.3-0.2,0.4-0.7,0.4
		C70.1,502.2,70.1,502.2,70.1,502.2c0-0.2-0.1-0.3-0.1-0.4C70,501.9,70.1,502,70.1,502.2z"/>
	<path class="st4" d="M118.2,459.7c-0.2,0.1-0.4,0.2-0.5,0.3C117.8,459.9,118,459.8,118.2,459.7
		C118.2,459.7,118.2,459.7,118.2,459.7z"/>
	<path class="st4" d="M102,500c-0.3,2.4,0.2,4.4,3,4.2c-0.4,0.3-0.7,0.6-1.2,1c0.5-0.4,0.8-0.7,1.3-1
		C102.1,504.4,101.7,502.4,102,500z"/>
	<path class="st4" d="M69.9,487.1c0,1,0,2.1,0,3.3c0,1.8,0,3.3,0,4.8c0,1.9,0,3.7,0,5.8c0,0.1,0,0.2,0,0.2c0.1,0.2,0.1,0.4,0.2,0.7
		c-0.1-0.4-0.2-0.6-0.2-1c0-2,0-3.9,0.1-5.8c-0.1-1.5-0.1-3-0.1-4.6c0.1,1.4,0.1,3,0.1,4.6c0-1.6,0-3.2-0.1-4.9
		C69.9,489.2,69.9,488.2,69.9,487.1c0-2,0-4.1,0-6.2C69.9,482.8,70,484.9,69.9,487.1c0.1-2.2,0-4.3,0-6.5c0,0,0,0.1,0,0.1
		C69.9,483,69.9,485.1,69.9,487.1z"/>
	<path class="st4" d="M186.8,502.5c-5.7,1.4-10.4,0.4-14.2-4.7c-0.4-0.5-0.8-1.1-1.3-1.7c-1,2.3-2,4.5-3,6.7
		c-1.6,3.6-3.3,7.2-4.9,10.9c-0.1,0.3-0.3,0.6-0.5,0.9c-0.8,1.4-1.9,2.4-3.8,2.1c-1.6-0.2-2.6-1.2-3.1-2.5c-1-2.3-1.8-4.7-2.5-7.2
		c-2.3-7.4-4.5-14.8-6.7-22.1c-2.4,5.1-4.8,10.4-7.4,15.6c-0.3,0.3-0.5,0.6-0.7,0.9c0,0,0,0-0.1,0c-0.1,0.1-0.2,0.2-0.2,0.2
		c0,0.1,0,0.1-0.2,0.2c-0.4,0.3-0.6,0.5-0.8,0.7c-0.1,0-0.2,0.1-0.4,0.1c-0.2,0.1-0.3,0.1-0.3,0.2c-0.2,0-0.4,0.1-0.7,0
		c-0.6-0.1-1.1-0.2-1.5-0.2c-2.9,0-5.9,0-8.8,0c-6.5,0-13.1,0-19.6,0c-2,0-2.4-0.6-2.4-3c0-0.9,0.1-1.5,0.5-1.8
		c-1.1,0.2-1.5,0.8-1.6,2.2c0,0.3,0,0.5,0,0.8c0.1,2.2,0.5,2.7,2.6,3c0.5,0.1,1,0.1,1.5,0.1c6.4,0,12.9,0,19.5,0
		c0.1,0,0.1,0.1,0.1,0.2c-7,0.1-13.9,0.1-21,0.1c7.1,0,14,0,21,0c0.9,1,1.9,2,2.8,3c0,0-0.1,0.1-0.1,0.1c0.2,0,0.3,0,0.5,0
		c0.1-0.1,0.1-0.2,0.2-0.3c-0.9-1-1.9-2-2.8-3c0-0.1,0-0.2,0.1-0.2c1.6,0,3.1,0,4.6,0c1.5,0,3-0.1,4.6-0.2c0.1,0,0.1,0,0.2,0
		c0,0,0,0,0.1,0c0,0,0,0,0,0c0.1,0,0.3,0,0.5-0.1c0.1-0.1,0.2-0.1,0.3-0.2c0.2,0,0.3-0.1,0.4-0.1c0.3-0.2,0.6-0.5,0.9-0.7
		c0.1-0.1,0.1-0.2,0.2-0.3c0.1-0.1,0.2-0.2,0.2-0.2c0,0,0,0,0.1,0c0.3-0.3,0.4-0.5,0.7-0.9c2.5-5.3,4.9-10.5,7.3-15.6
		c2.2,7.3,4.4,14.7,6.7,22.1c0.7,2.4,1.6,4.8,2.5,7.2c0.5,1.3,1.5,2.3,3.1,2.5c1.8,0.2,2.9-0.7,3.8-2.1c0.2-0.3,0.4-0.6,0.5-0.9
		c1.6-3.6,3.3-7.2,4.9-10.9c1-2.2,2-4.4,3-6.7c0.5,0.7,0.9,1.2,1.3,1.7c3.9,5.1,8.5,6.1,14.2,4.7c1.6-0.4,2.4-1.5,2.2-2.8
		c0-0.1,0-0.1,0-0.1C189,501.3,188.2,502.2,186.8,502.5z"/>
	<path class="st4" d="M135.8,496.6c0.6-1.5,1.2-3,1.8-4.5c0-0.1,0-0.2-0.1-0.3c0,0.1-0.1,0.2-0.1,0.3c-0.7,1.6-1.3,3.2-2,4.8
		C135.6,496.8,135.7,496.7,135.8,496.6z"/>
	<path class="st4" d="M98.3,514.2c0.7,0.1,1.3,0.1,1.9,0.2c1.5,0,2.9,0,4.6,0c0.7,0.2,1.1,0.3,1.5,0.5c0.1,0.3,0.1,0.6,0.2,0.9
		c-0.1-0.3-0.1-0.6-0.1-0.9c-0.5-0.2-1-0.3-1.5-0.5c0.3-1.4,0.4-1.8,1.2-1.7c-0.8-0.1-0.9,0.3-1.4,1.7c-1.6,0-3,0-4.6-0.1
		C99.5,514.3,98.9,514.3,98.3,514.2z"/>
	<path class="st4" d="M77,513.4c0.2,0,0.4,0,0.7,0.2C77.5,513.6,77.3,513.6,77,513.4c0.3,0.1,0.5,0.2,0.7,0.2c0,0,0,0,0,0
		c0,0,0,0,0,0c0,0,0,0,0,0.1c1,0.1,2.1,0.3,3.2,0.4c-1.1-0.2-2.1-0.3-3.2-0.5c0,0,0,0,0-0.1C77.4,513.5,77.2,513.4,77,513.4
		C77,513.4,77,513.4,77,513.4z"/>
	<path class="st4" d="M76.9,513.3c-0.1,0-0.2,0-0.4-0.1C76.7,513.3,76.8,513.3,76.9,513.3C77,513.4,77,513.4,76.9,513.3
		c-0.2-0.1-0.3-0.2-0.5-0.2c0,0,0,0,0,0.1C76.6,513.2,76.7,513.2,76.9,513.3z"/>
	<path class="st4" d="M75.4,512.3c-0.3-0.1-0.6-0.3-1-0.6C74.8,512,75.1,512.2,75.4,512.3c0,0.1,0,0.1,0,0.2c0.2,0,0.5,0.2,0.7,0.4
		c-0.2,0-0.5-0.2-0.7-0.4c0.3,0.2,0.5,0.3,0.7,0.5c0,0,0,0,0,0c0.1,0,0.1,0,0.3,0.1c-0.1,0-0.1,0-0.3-0.1c0.1,0.1,0.2,0.1,0.3,0.2
		c0,0,0,0,0-0.1c-0.1-0.1-0.2-0.1-0.3-0.2c0,0,0,0,0-0.1C75.9,512.6,75.7,512.5,75.4,512.3C75.4,512.4,75.4,512.4,75.4,512.3
		c-0.3-0.3-0.7-0.5-1-0.7c0,0,0,0,0,0.1C74.7,511.8,75.1,512,75.4,512.3z"/>
	<path class="st4" d="M109.1,549.4c0,0.1,0,0.1,0,0.2C109.1,549.5,109.1,549.4,109.1,549.4z"/>
	<path class="st4" d="M69.9,477.7c0,0.1,0,0.2,0,0.5c0,0.5,0,0.7,0,1c0,0.3,0,0.5,0,0.9c0,0.2,0,0.3,0,0.5c0-0.2,0-0.3,0.1-0.4
		c0.5-0.2,0.8-0.3,1.1-0.5c-0.3,0.1-0.7,0.3-1.2,0.4c-0.1-0.4-0.1-0.6,0-1c-0.1-0.2-0.1-0.5-0.1-0.9c0,0.2,0.1,0.5,0.1,0.9
		c0-0.4,0-0.7-0.1-1.1C69.9,477.9,69.9,477.8,69.9,477.7c0-1.5,0-3.1,0-4.7C69.9,474.4,70,476,69.9,477.7c0.1-1.7,0.1-3.2,0-4.9
		c0,0,0,0,0,0.1C69.9,474.6,69.9,476.2,69.9,477.7z"/>
	<path class="st4" d="M74.4,511.6c-0.1,0-0.2,0-0.3,0C74.2,511.6,74.3,511.6,74.4,511.6C74.4,511.6,74.4,511.6,74.4,511.6z"/>
	<path class="st4" d="M73.9,511.2c-0.1-0.1-0.1-0.1-0.2-0.2c0,0,0,0,0,0c-0.3-0.5-0.5-1-0.9-1.5c0.3,0.5,0.6,1,0.8,1.5c0,0,0,0,0,0
		c0.1,0,0.1,0,0.1,0.1C73.7,511.1,73.8,511.1,73.9,511.2z"/>
	<path class="st4" d="M109.2,550.2c0-0.2,0-0.4-0.1-0.6C109.1,549.8,109.1,550,109.2,550.2C109.2,550.2,109.2,550.2,109.2,550.2z"/>
	<path class="st4" d="M98.2,514.2C98.2,514.2,98.2,514.2,98.2,514.2c0.6,0,1.2,0,1.9,0.1C99.4,514.2,98.7,514.2,98.2,514.2
		c-0.1-0.1-0.1-0.1-0.1-0.2c0.2-0.8,0.5-1.6,0.7-2.5c-0.3,0.9-0.5,1.6-0.8,2.5c-1.6,0.2-3.1,0.3-4.5,0.3c1.5,0,2.9-0.1,4.5-0.2
		C98.1,514.1,98.1,514.1,98.2,514.2z"/>
	<path class="st4" d="M126.9,449.6C126.9,449.6,126.8,449.6,126.9,449.6c-0.4,0.7-0.1,0.8,0.6,0.8
		C126.8,450.4,126.5,450.3,126.9,449.6z"/>
	<path class="st4" d="M89.8,490.5c0.2,0,0.4,0,0.5,0.1c0,0,0,0,0.1-0.1C90.2,490.6,90,490.5,89.8,490.5z"/>
	<path class="st4" d="M88.5,490.3c0-0.1,0.1-0.3,0.1-0.4C88.6,490,88.5,490.1,88.5,490.3C88.5,490.3,88.5,490.3,88.5,490.3z"/>
	<path class="st4" d="M89.7,470.2c0.2,0.3,0.4,0.5,0.5,0.8C90.1,470.7,90,470.5,89.7,470.2C89.8,470.2,89.8,470.2,89.7,470.2z"/>
	<path class="st4" d="M133.5,525.7c0,0.1,0,0.2,0,0.3C133.5,525.9,133.5,525.8,133.5,525.7C133.5,525.7,133.5,525.7,133.5,525.7z"/>
	<path class="st4" d="M106.1,506.5c-0.2,0-0.4,0-0.6,0C105.7,506.5,105.9,506.5,106.1,506.5C106.1,506.6,106.1,506.6,106.1,506.5z"
		/>
	<path class="st4" d="M121.2,538.7c0,0.1,0,0.2,0,0.3C121.2,538.9,121.3,538.8,121.2,538.7C121.3,538.7,121.3,538.7,121.2,538.7z"/>
	<path class="st4" d="M95,471c-0.1-0.2-0.2-0.4-0.3-0.7c0,0-0.1,0-0.1,0C94.7,470.5,94.9,470.8,95,471z"/>
	<path class="st4" d="M94.9,472.3c0.1,0.2,0.2,0.3,0.4,0.5C95.1,472.7,95,472.5,94.9,472.3C94.9,472.4,94.9,472.3,94.9,472.3z"/>
	<path class="st4" d="M94.9,468.9c-0.1-0.1-0.2-0.1-0.3-0.3c0,0,0,0-0.1,0C94.7,468.7,94.8,468.8,94.9,468.9z"/>
	<path class="st4" d="M115.1,545.3c0.3,0.1,0.6,0.2,0.9,0.4c0,0,0.1,0,0.1,0C115.8,545.5,115.4,545.4,115.1,545.3z"/>
	<path class="st4" d="M97.9,487.8c-0.1,0.1-0.2,0.3-0.3,0.4C97.8,488.1,97.8,487.9,97.9,487.8C97.9,487.8,98,487.8,97.9,487.8z"/>
	<path class="st4" d="M71.1,494.3c0,0.2,0,0.3,0,0.5C71.1,494.7,71.1,494.5,71.1,494.3z"/>
	<path class="st4" d="M80.7,479.2C80.7,479.2,80.7,479.3,80.7,479.2c0.2,0.1,0.5,0.1,0.6,0.1C81.2,479.4,80.9,479.3,80.7,479.2z"/>
	<path class="st4" d="M85.3,478.3c0.1,0.1,0.1,0.1,0.1,0.2c0,0,0,0,0.1,0C85.5,478.5,85.4,478.4,85.3,478.3z"/>
	<path class="st4" d="M76.6,497.4c0.2,0,0.3,0,0.5,0.1C76.9,497.4,76.8,497.4,76.6,497.4C76.6,497.3,76.6,497.3,76.6,497.4z"/>
	<path class="st4" d="M119.2,543.1c0.2,0.1,0.4,0.2,0.7,0.3c-0.2-0.1-0.4-0.2-0.5-0.3C119.2,543.1,119.2,543.1,119.2,543.1z"/>
	<path class="st4" d="M70.8,493.2c-0.1,0.6-0.1,1.1-0.2,1.7c0-0.5,0.1-1,0.2-1.5C70.8,493.3,70.8,493.2,70.8,493.2z"/>
	<path class="st5" d="M72.8,509.6c-1.6-2.1-2.7-4.3-2.7-7.1c0,0,0,0,0,0c0,0,0,0,0-0.1c0-0.2,0-0.2,0-0.3c0-0.1-0.1-0.3-0.1-0.4
		c0-0.1-0.1-0.3-0.1-0.5c0,0,0,0.1,0,0.1c0-0.1,0-0.1,0-0.2c0-2.1,0-4,0-5.8c0-1.5,0-3.1,0-4.8c0-1.3,0-2.3,0-3.3c0-2,0-4.1,0-6.3
		c0,0,0-0.1,0-0.1c0,0,0,0,0,0s0,0,0,0c0-0.2,0-0.3,0-0.5c0-0.4,0-0.6,0-0.9c0-0.3,0-0.5,0-1c0-0.3,0-0.4,0-0.5c0-1.5,0-3.1,0-4.8
		c0,0,0,0,0-0.1c0,0,0,0,0-0.1c0.2-2.4,0.2-4.8,1.2-7c0.2-0.5,0.2-1.1,0.2-1.5c-1.2,2.3-1.7,4.6-1.7,7c0,10.3,0,20.7,0,31
		c0,0.5,0,1.1,0.1,1.6c0.5,2.8,1.9,5,3.7,7.1c0,0,0,0,0,0s0.1,0,0.1,0c0,0,0,0,0,0C73.4,510.6,73.2,510,72.8,509.6z"/>
	<path class="st0" d="M69.9,506.9c-0.3-0.9-0.5-1.7-0.9-2.4C68.4,505.5,68.8,506.5,69.9,506.9z"/>
	<path class="st5" d="M71.9,463.4c0.3-0.3,0.5-0.7,0.6-1C72.2,462.7,72,463,71.9,463.4z"/>
	<path class="st0" d="M68.8,491.5c0.1,0.4,0.2,0.7,0.3,0.9C69,492,68.9,491.7,68.8,491.5z"/>
	<path class="st5" d="M74.5,460.3c-0.4,0.3-0.6,0.5-0.8,0.8C74.1,460.9,74.4,460.6,74.5,460.3z"/>
	<path class="st5" d="M73,461.9c0.3-0.3,0.5-0.5,0.6-0.8C73.3,461.4,73.1,461.7,73,461.9z"/>
	<path class="st5" d="M72.8,461.9c-0.1,0.2-0.2,0.3-0.2,0.4c0,0,0,0,0,0C72.8,462.2,72.8,462,72.8,461.9z"/>
	<path class="st5" d="M71.4,464.2c0.1-0.2,0.2-0.3,0.1-0.4C71.4,463.9,71.4,464.1,71.4,464.2z"/>
	<path class="st5" d="M71.7,463.7c0.1-0.1,0.1-0.2,0.1-0.3C71.7,463.5,71.6,463.6,71.7,463.7z"/>
	<path class="st0" d="M73.8,512.7c0.1,0.1,0.3,0.1,0.4,0.1c0-0.2,0-0.3-0.1-0.4C73.9,512.5,73.9,512.6,73.8,512.7z"/>
	<path class="st3" d="M73.6,511.1C73.6,511.1,73.6,511.1,73.6,511.1C73.6,511.1,73.6,511.1,73.6,511.1c-0.1,0-0.2,0-0.2,0
		c0.1,0.1,0.1,0.2,0.2,0.2c0,0,0,0,0,0C73.7,511.3,73.7,511.2,73.6,511.1C73.7,511.1,73.7,511.1,73.6,511.1z"/>
	<path class="st3" d="M73.9,511.3c0,0-0.1,0-0.2,0c-0.1,0-0.1,0,0,0.1c0.1,0.1,0.1,0.2,0.2,0.2c0,0,0.1,0,0.1,0S74,511.4,73.9,511.3
		C73.9,511.3,73.9,511.3,73.9,511.3z"/>
	<path class="st6" d="M202.8,469.3c-1.1-2.4-2.7-4.6-4.2-7c-6-6.5-13.3-8.9-21.7-7.1c-7.3,1.5-12.5,6.1-16.4,12.3
		c-0.3,0.4-0.6,0.8-1,1.4c-0.3-0.3-0.5-0.5-0.6-0.7c-2.1-3.4-4.7-6.3-8.2-8.4c-6.3-3.8-12.8-4.5-19.7-1.7
		c-10.1,4.2-15.1,17.3-12.5,27.3c0.8,3.1,2,6,3.1,9.1c-1.6,0-3.3,0-5,0c0,0.1,0,0.2,0,0.4c0.5,0.7,1,1.3,1.5,2
		c0.2,0.3,0.4,0.5,0.5,0.7c1.1,0,2.2,0,3.3,0c3.9,0,7.7,0,11.6,0c0.5,0,0.9-0.3,1.4-0.5c0,0,0.1-0.1,0.2-0.1c0.1,0,0.2-0.1,0.3-0.1
		c0.7-1.6,1.3-3.2,2-4.8c0-0.1,0.1-0.2,0.1-0.3c0-0.1-0.1-0.2-0.1-0.3c2.1-5.2,4.2-10.4,6.3-15.5c1-2.3,3.8-2.9,5.6-1.1
		c0.8,0.9,1.4,2.1,1.8,3.3c2.9,9.4,5.6,18.8,8.5,28.2c0,0.2,0.1,0.3,0.2,0.7c1.2-2.7,2.3-5.3,3.5-7.9c1.3-2.8,2.5-5.6,4-8.2
		c1.8-3.3,5.1-3.4,7.4-0.4c1.1,1.5,2.2,3,3.3,4.5c1.1,1.4,2.4,2.3,4.3,2.1c1.3-0.1,2.5,0,3.8,0c1.6,0,2.7,1,2.9,2.7
		c0,0.2,0,0.3,0,0.5c0,0.1,0,0.1,0,0.1c0.2,1.3-0.6,2.4-2.2,2.8c-5.7,1.4-10.4,0.4-14.2-4.7c-0.4-0.5-0.8-1.1-1.3-1.7
		c-1,2.3-2,4.5-3,6.7c-1.6,3.6-3.3,7.2-4.9,10.9c-0.1,0.3-0.3,0.6-0.5,0.9c-0.8,1.4-1.9,2.4-3.8,2.1c-1.6-0.2-2.6-1.2-3.1-2.5
		c-1-2.3-1.8-4.7-2.5-7.2c-2.3-7.4-4.5-14.8-6.7-22.1c-2.4,5.1-4.8,10.4-7.3,15.6c-0.3,0.3-0.4,0.6-0.7,0.9c-0.1,0-0.1,0-0.1,0
		c0,0.1-0.1,0.1-0.2,0.2c-0.1,0.1-0.1,0.2-0.2,0.3c-0.3,0.2-0.5,0.5-0.9,0.7c-0.2,0-0.3,0.1-0.4,0.1c-0.1,0.1-0.2,0.1-0.3,0.2
		c-0.2,0-0.3,0-0.5,0.1c0,0-0.1,0.1-0.2,0.1c0,0,0-0.1,0.1-0.1c-0.1,0-0.1,0-0.2,0c-1.6,0.1-3.1,0.1-4.6,0.2c-1.5,0-3,0-4.6,0
		c-0.1,0-0.1,0.1-0.1,0.2c0.9,1.1,1.9,2,2.8,3c-0.1,0.1-0.1,0.2-0.2,0.3c-0.2,0-0.3,0-0.5,0c0,0.1-0.1,0.1-0.1,0.2
		c1.3,0,2.2,0.7,2.9,1.9c0,0.1,0,0.1,0,0.1c0.6,0.6,1.1,1.1,1.7,1.8c0,0.1,0,0.1,0,0.1c3.3,3.3,6.6,6.5,9.9,9.8
		c0.1,0.1,0.2,0.1,0.3,0.2c1.4,1.2,2.7,2.4,4.1,3.6c0.2,0.2,0.3,0.3,0.5,0.4c2.3,1.9,4.6,3.7,6.9,5.6c0.3,0.2,0.5,0.4,0.7,0.6
		c0.7,0.5,1.4,1,2.1,1.6c0.1,0.1,0.2,0.1,0.3,0.2c0.9,0.7,1.8,1.2,2.6,1.9c1,0.8,1.9,0.8,2.9,0.1c1-0.7,2-1.3,3.1-2
		c0.1-0.1,0.2-0.1,0.2-0.1c2.2-1.7,4.4-3.4,6.7-5.2c0.1-0.1,0.2-0.1,0.2-0.1c2.7-2.4,5.5-4.8,8.3-7.3c1.2-1.2,2.4-2.3,3.7-3.4
		c0.1,0,0.1,0,0.1,0c0.5-0.5,0.9-1,1.4-1.5c0.1,0,0.1,0,0.1,0c0-0.1,0.1-0.2,0.2-0.3c0.1,0,0.1,0,0.1,0c2.1-2.5,4.2-5.1,6.4-7.7
		c0.1-0.1,0.2-0.1,0.3-0.2c0-0.1,0-0.3,0.1-0.4c0.1,0,0.1,0,0.1,0c1.4-2,2.8-4,4.2-6.1c0.1,0,0.1-0.1,0.1-0.1
		c0.5-0.8,0.9-1.7,1.5-2.6c0.1-0.1,0.1-0.1,0.1-0.2c0.1-0.1,0.1-0.2,0.2-0.3c0.1,0,0.1,0,0.1,0c1.1-3.2,2.3-6.3,3.5-9.7
		c0.1-0.3,0.1-0.4,0.2-0.5c0.2-1.8,0.5-3.5,0.6-5.3C205.1,477.9,204.6,473.4,202.8,469.3z"/>
	<path class="st6" d="M123.7,507.6c1.4,0,2.9,0.1,4.3,0c0,0,0.1,0,0.1,0C126.7,507.5,125.3,507.5,123.7,507.6
		C123.7,507.5,123.7,507.6,123.7,507.6z"/>
	<path class="st1" d="M104.9,497.8c-0.3,0-0.6,0-0.9,0.1c-0.4,0.3-0.5,0.8-0.5,1.8c0,2.4,0.4,3,2.4,3c6.5,0,13.1,0,19.6,0
		c2.9,0,5.9,0,8.8,0c0.5,0,0.9,0.1,1.5,0.2c0.4,0.1,0.5,0,0.7,0c0.1-0.1,0.1-0.1,0.3-0.2c0.2,0,0.3-0.1,0.4-0.1
		c0.2-0.2,0.5-0.5,0.8-0.7c0.2-0.1,0.2-0.1,0.2-0.2c0.1-0.1,0.1-0.1,0.2-0.2c0.1,0,0.1,0,0.1,0c0.2-0.3,0.3-0.5,0.7-0.9
		c2.6-5.3,5-10.5,7.4-15.6c2.2,7.3,4.4,14.7,6.7,22.1c0.7,2.4,1.6,4.8,2.5,7.2c0.5,1.3,1.5,2.3,3.1,2.5c1.8,0.2,2.9-0.7,3.8-2.1
		c0.2-0.3,0.4-0.6,0.5-0.9c1.6-3.6,3.3-7.2,4.9-10.9c1-2.2,2-4.4,3-6.7c0.5,0.7,0.9,1.2,1.3,1.7c3.9,5.1,8.5,6.1,14.2,4.7
		c1.4-0.4,2.2-1.2,2.2-2.3c0-0.1,0-0.3,0-0.5c-0.3-1.7-1.3-2.7-2.9-2.7c-1.3,0-2.6-0.1-3.8,0c-1.9,0.1-3.3-0.7-4.3-2.1
		c-1.1-1.5-2.2-3-3.3-4.5c-2.3-3-5.6-2.8-7.4,0.4c-1.5,2.7-2.7,5.5-4,8.2c-1.2,2.6-2.3,5.1-3.5,7.9c-0.1-0.4-0.2-0.5-0.2-0.7
		c-2.8-9.4-5.6-18.8-8.5-28.2c-0.4-1.2-0.9-2.4-1.8-3.3c-1.7-1.9-4.6-1.3-5.6,1.1c-2.1,5.2-4.2,10.4-6.3,15.5c0,0.1,0.1,0.2,0.1,0.3
		c0.1,0.1,0.1,0.2,0.1,0.3c-0.6,1.5-1.1,3-1.8,4.5c-0.1,0.1-0.2,0.2-0.5,0.3c-0.1,0-0.2,0.1-0.3,0.1c-0.1,0-0.2,0.1-0.2,0.1
		c-0.5,0.2-0.9,0.5-1.4,0.5c-3.9,0-7.7,0-11.6,0c-1.3,0-2.7,0-4,0c0,0.1,0.1,0.1,0.1,0.2C113.6,497.8,109.2,497.8,104.9,497.8z"/>
	<path class="st7" d="M69.9,487.1c0-2.1,0-4.2-0.1-6.2C69.9,483,69.9,485.1,69.9,487.1z"/>
	<path class="st7" d="M69.9,495.2c0-1.6,0-3.2-0.1-4.6C69.9,492.2,69.9,493.7,69.9,495.2z"/>
	<path class="st7" d="M71.1,494.3c0-0.3-0.1-0.7-0.2-1c-0.1,0.5-0.2,1-0.2,1.5c0.2,0,0.3,0,0.5,0C71.1,494.7,71.1,494.5,71.1,494.3z
		"/>
	<path class="st7" d="M69.9,501.2c0,0.2,0.1,0.3,0.1,0.5c0,0.1,0.1,0.2,0.1,0.3c-0.1-0.3-0.1-0.5-0.2-0.7
		C69.9,501.3,69.9,501.3,69.9,501.2z"/>
	<path class="st7" d="M69.9,477.6c0-1.6,0-3.2-0.1-4.6C69.9,474.6,69.9,476.2,69.9,477.6z"/>
	<path class="st7" d="M69.9,479.2c0-0.4,0-0.7-0.1-0.9C69.9,478.7,69.9,479,69.9,479.2z"/>
	<path class="st8" d="M74.4,511.6C74.4,511.6,74.4,511.6,74.4,511.6c-0.2-0.1-0.3-0.2-0.4-0.2c0,0,0,0.2,0.1,0.2
		C74.2,511.6,74.3,511.6,74.4,511.6z"/>
	<path class="st5" d="M73.7,511.1c0,0.1,0,0.2,0.1,0.2c0.1,0,0.2,0,0.1-0.1c0,0,0,0,0,0C73.8,511.1,73.7,511.1,73.7,511.1z"/>
	<path class="st8" d="M157.9,434.1c0,7.6,0,15.3,0,22.9c0,0.3-0.5,0.6-0.7,0.9c0,0.1,0,0.1,0,0.3c0.4,0.5,0.7,0.8,1.2,1.2
		c0-0.3,0.1-0.4,0.1-0.6c0-8,0-16,0-23.9c0-1.3-0.5-2.6-0.8-3.8c0,0,0,0,0-0.1C157.7,432,157.9,433.1,157.9,434.1z"/>
	<path class="st5" d="M118.2,459.7c-0.3,0.1-0.5,0.2-0.6,0.3c-1.2,1.8-2.5,3.6-3.4,5.6c-0.4,0.8-0.7,1.6-1,2.4c0,0,0,0,0,0.1
		c-0.3,0.7-0.5,1.5-0.8,2.2c-0.1,0.2-0.1,0.4-0.2,0.6c-0.1,0.5-0.2,0.9-0.3,1.4c-0.2,1.1-0.4,2.2-0.6,3.4c0,0,0.1,0,0.2-0.1
		C112.8,469.8,114.7,464.4,118.2,459.7C118.2,459.7,118.2,459.7,118.2,459.7C118.2,459.7,118.2,459.7,118.2,459.7z"/>
	<path class="st8" d="M145,424.2c1.6,0,3,0,4.3,0c0,0,0-0.1-0.1-0.2c-6.7-0.1-13.3-0.1-19.9-0.1c-4.4,0-8.7,0.1-13.1,0.1
		c0,0,0,0.1,0,0.2C125.7,424.2,135.2,424.2,145,424.2z"/>
	<path class="st5" d="M107.4,433c-0.2,0.8-0.3,1.6-0.3,2.3c0,5.3,0,10.6,0,15.9c0,1.7-0.4,3.4-0.6,5.1c0,0.1,0.1,0.2,0.2,0.4
		c0.3-0.8,0.5-1.6,0.8-2.5c0-1.3-0.1-2.4-0.2-3.5c0-4.8,0-9.7,0-14.7c0-0.4,0.1-0.7,0.2-1.1c0.1-0.6,0.1-1.1,0.1-1.7
		C107.5,433.1,107.5,433,107.4,433z"/>
	<path class="st8" d="M102.3,458.8c0.6,0,1.1,0,1.7,0c0,0,0.1,0,0.2-0.1c0.1-0.2,0.1-0.3-0.1-0.4c-1.8,0-3.5,0-5.2,0
		c-6.4,0-12.8,0-19.1,0c0,0,0,0.1,0.1,0.2c4.3,0.1,8.5,0.1,12.7,0.1c1.2,0,2.4,0,3.6,0C98.2,458.7,100.2,458.8,102.3,458.8z"/>
	<path class="st5" d="M147,452.3c0.9,0.4,1.9,0.6,2.6,1.1c2.5,1.5,5,3.1,7.5,4.6c0-0.1,0-0.2,0-0.3c-2.3-1.5-4.4-3.1-6.7-4.5
		C149.4,452.7,148.1,452.6,147,452.3z"/>
	<path class="st8" d="M134.4,450.5c-0.6,0-1.1,0.4-1.6,0.6c0.2,0,0.2-0.1,0.3-0.1c0.1,0,0.1,0,0.2,0c0.1,0,0.1,0,0.2,0c0,0,0,0,0,0
		c0,0,0.1,0,0.2,0c1.2-0.1,2.2-0.2,3.2-0.2c3.4-0.1,6.8,0.6,10,1.5c-1.5-0.6-3-1.3-4.6-1.6c-0.2,0-0.4-0.1-0.7-0.1
		C139.3,450.2,136.9,450.4,134.4,450.5z"/>
	<path class="st8" d="M112.3,487.8C112.4,487.9,112.4,487.9,112.3,487.8c-0.8-3.6-0.9-7.1-0.9-10.6c0,0-0.1,0-0.2,0.1
		c-0.2,1-0.2,1.8-0.3,2.7c0.1,0.9,0.3,1.7,0.2,2.6C111,484.4,111.6,486.1,112.3,487.8z"/>
	<path class="st5" d="M115.9,495c0-0.2,0-0.3,0-0.4c-0.4-0.4-0.8-0.7-1-1.1c-0.8-1.9-1.6-3.7-2.4-5.6c0,0,0,0,0,0
		c0.6,1.8,1.2,3.6,1.9,5.3C114.5,494,114.7,495,115.9,495z"/>
	<path class="st7" d="M154.1,427C154.2,427,154.2,427,154.1,427c0.4,0.2,0.6,0.3,0.9,0.5c0.1,0.1,0.2,0.1,0.3,0.2
		c0.1,0,0.1,0.1,0.2,0.2c0.1,0.1,0.2,0.3,0.3,0.4c0,0,0,0.1,0.1,0.1c0.1,0.2,0.2,0.4,0.3,0.7c0,0,0,0,0,0c0.2,0,0.3,0,0.6,0
		c0.1,0,0.1,0,0.1-0.1c-1.1-1.2-2.1-2.3-3.2-3.3c-0.1,0.3-0.2,0.5-0.3,0.9C153.7,426.8,153.9,426.9,154.1,427
		C154.1,427,154.1,427,154.1,427z"/>
	<path class="st7" d="M149.3,424.1c0,0.1,0,0.2,0.1,0.2c1.5,0.5,2.9,0.9,4.3,1.3C152.2,425,150.8,424.5,149.3,424.1z"/>
	<path class="st7" d="M116.1,424.2c0.1-0.1,0.1-0.2,0-0.3c-1.3,0.4-2.6,0.9-3.8,1.4c0,0,0.1,0.1,0.1,0.1
		C113.6,425.1,114.8,424.7,116.1,424.2z"/>
	<path class="st5" d="M77.5,459.1c0.8-0.2,1.5-0.4,2.3-0.6c0-0.1,0-0.2-0.1-0.2c-1.2,0.3-2.3,0.6-3.3,1c0,0-0.1,0-0.1,0
		C76.7,459.3,77.1,459.2,77.5,459.1z"/>
	<path class="st5" d="M120.2,457.6c-0.7,0.7-1.3,1.4-1.8,2.1C119.1,459,119.7,458.3,120.2,457.6z"/>
	<path class="st7" d="M109.6,427.7c-0.5,0.8-1,1.5-1.4,2.3c0,0,0,0,0,0c0.5-0.7,1-1.4,1.5-2.2C109.8,427.8,109.8,427.7,109.6,427.7z
		"/>
	<path class="st7" d="M107.6,433.1c0.3-0.9,0.5-1.9,0.7-3c0-0.1,0-0.1-0.1-0.1c-0.3,1-0.6,1.9-0.8,2.8
		C107.5,433,107.5,433.1,107.6,433.1z"/>
	<path class="st7" d="M111.3,426c-0.6,0.6-1.1,1.1-1.6,1.7c0,0,0.1,0.1,0.1,0.1C110.3,427.3,110.8,426.7,111.3,426
		C111.4,426,111.4,426,111.3,426z"/>
	<path class="st5" d="M121.8,456.2c0-0.1,0-0.2-0.1-0.2c-0.5,0.5-1,1-1.3,1.5C120.9,457.1,121.3,456.7,121.8,456.2z"/>
	<path class="st7" d="M111.5,477.2c0.1-0.5,0.1-1,0.1-1.5c-0.1,0-0.2,0-0.2,0.1c-0.1,0.5-0.1,1-0.1,1.5
		C111.3,477.2,111.3,477.2,111.5,477.2z"/>
	<path class="st5" d="M105.9,457.3c-0.4,0.3-0.6,0.5-0.8,0.8C105.4,457.8,105.7,457.5,105.9,457.3z"/>
	<path class="st5" d="M74.7,460.3c0.4-0.2,0.7-0.5,0.9-0.7C75.2,459.8,74.9,460.1,74.7,460.3C74.7,460.3,74.7,460.3,74.7,460.3
		C74.7,460.3,74.7,460.3,74.7,460.3z"/>
	<path class="st7" d="M112.3,425.5c0-0.1,0-0.2-0.1-0.2c-0.3,0.2-0.6,0.4-0.8,0.6c0,0,0,0,0,0C111.7,425.9,112,425.8,112.3,425.5z"
		/>
	<path class="st8" d="M104.3,458.3c0.3-0.1,0.5-0.2,0.6-0.3C104.6,458.1,104.4,458.2,104.3,458.3
		C104.3,458.3,104.3,458.3,104.3,458.3C104.3,458.3,104.3,458.3,104.3,458.3z"/>
	<path class="st8" d="M157.3,430.4c0-0.1,0.1-0.1,0.1-0.3c-0.1-0.2-0.1-0.3-0.2-0.3c0,0,0,0,0,0
		C157.2,430.1,157.3,430.2,157.3,430.4z"/>
	<path class="st5" d="M106,457.3c0.1-0.2,0.2-0.3,0.2-0.5C106.1,457,106,457.1,106,457.3C106,457.3,106,457.3,106,457.3
		C106,457.3,106,457.3,106,457.3z"/>
	<path class="st7" d="M133.4,451c-0.1,0-0.1,0-0.2,0.1c0.2,0,0.3,0,0.4-0.1c0,0,0,0,0,0C133.5,451,133.5,451,133.4,451z"/>
	<path class="st0" d="M85.2,588.7c0.3,0,0.6,0,0.9-0.1c-0.1-0.2-0.1-0.4-0.2-0.5C85.7,588.3,85.4,588.4,85.2,588.7z"/>
	<path class="st0" d="M88.9,587.1c0.2-0.1,0.3-0.2,0.5-0.3c-0.2-0.1-0.4-0.3-0.7-0.4C88.7,586.7,88.8,586.9,88.9,587.1z"/>
	<path class="st0" d="M91.9,585.3c-0.1,0.2-0.1,0.4-0.1,0.7c0.2-0.1,0.4-0.3,0.5-0.4C92.1,585.5,92,585.4,91.9,585.3z"/>
	<path class="st0" d="M92.1,586.9c0.1,0.1,0.2,0.3,0.3,0.4c0-0.2,0-0.3-0.1-0.5C92.2,586.9,92.2,586.9,92.1,586.9z"/>
	<path class="st2" d="M109.4,550.6c-0.1,0-0.1,0-0.1,0.2c0.2,0.5,0.3,0.9,0.5,1.2c0.7,1,1.5,2,2.9,2.3c3.7,1.7,7.6,1.4,11.5,1.5
		c0.8,0,1.5,0,2.2,0c0.3,0,0.5,0,1,0c0.6,0,1.1,0,1.5,0c1.6,0,3.2,0,5.1,0c0.8,0,1.4,0,2,0c0.6,0,1.2,0,2,0c0.3,0,0.4,0,0.5,0
		c3.2,0,6.5,0,9.7,0c0.9,0,1.7-0.3,2.8-0.5c0.3,0,0.4,0,0.5,0c0.4-0.2,0.9-0.3,1.4-0.6c0.1-0.3,0.1-0.5,0.1-0.7c0,0,0,0,0,0
		c-2.3,1-4.7,1.2-7.2,1.2c-8.8-0.1-17.7,0-26.5-0.1C115.4,555.2,112,553.9,109.4,550.6z"/>
	<line class="st9" x1="77.7" y1="513.7" x2="77.7" y2="513.7"/>
	<path class="st2" d="M82.6,514.7c-1.6,0-3.2-0.5-4.9-0.9c0,0,0-0.1,0-0.1c-0.2,0-0.4-0.1-0.7-0.2c0-0.1,0-0.1,0-0.1c0,0,0,0,0,0
		c0,0,0,0,0,0c-0.1,0-0.3-0.1-0.5-0.2c0,0,0,0,0-0.1c0,0,0,0,0,0c0,0,0,0,0,0c-0.1,0-0.2-0.1-0.3-0.2c0-0.1,0-0.1,0,0
		c-0.2-0.1-0.5-0.2-0.7-0.5c0-0.1,0-0.1,0-0.1c-0.3-0.2-0.6-0.4-1-0.7c0,0,0-0.1,0-0.1c0,0,0,0,0,0c0,0,0,0,0,0
		c-0.1,0-0.2,0-0.3-0.1c-0.1,0-0.1,0-0.1,0.1c0.1,0.3,0.2,0.5,0.2,0.7c0,0.1,0,0.2,0.1,0.4c1.3,0.8,2.5,1.4,3.8,2
		c2.7,0.1,5.3,0.5,7.9,0.5c5.8,0.1,11.7,0,17.5,0.1c0.8,0,1.5,0.5,2.3,0.7c0.1-0.1,0.1-0.3,0.2-0.5c-0.7-1.1-1.7-1-2.7-1
		C96.4,514.7,89.5,514.8,82.6,514.7z"/>
	<path class="st3" d="M109.2,550.2C109.2,550.2,109.2,550.2,109.2,550.2c-1.5-1.9-2.1-4.1-2.1-6.5c0-8.7,0-17.4-0.2-26.2
		c-0.2,0.5-0.3,1-0.3,1.4c0,5.9,0,11.9,0,17.8c0,3.1,0,6.3,0.3,9.4c0.1,1.8,0.7,3.6,2.5,4.6c0,0,0-0.1,0-0.1
		C109.3,550.5,109.2,550.4,109.2,550.2C109.2,550.2,109.2,550.2,109.2,550.2C109.2,550.2,109.2,550.2,109.2,550.2z"/>
	<path class="st8" d="M109.2,550.2c0-0.2,0-0.4-0.1-0.6c0,0,0-0.1,0-0.1c0-0.1,0-0.1,0-0.2c0-0.1-0.1-0.2-0.1-0.2
		c-1-1.7-1.5-3.5-1.5-5.5c0-8.2,0-16.4,0-24.6c0-1-0.5-2-0.9-3c0,0.3,0.1,0.5,0.2,1c0.1,0.3,0.1,0.4,0.2,0.6
		c0.1,8.8,0.1,17.5,0.1,26.2C107,546.1,107.7,548.3,109.2,550.2C109.2,550.2,109.2,550.2,109.2,550.2z"/>
	<path class="st1" d="M151.7,555.4c0.5,0.2,0.9,0.3,1.4,0.4c0-0.4,0-0.7,0-1C152.5,555,152,555.2,151.7,555.4z"/>
	<path class="st2" d="M154.7,555.6c0.2-0.2,0.3-0.5,0.4-0.8c-0.3,0-0.6,0.1-0.9,0.1C154.4,555.2,154.5,555.4,154.7,555.6z"/>
	<path class="st1" d="M168.8,553.3c0.2,0.1,0.4,0.2,0.6,0.3c0-0.3,0.1-0.6,0-0.9C169.2,552.8,169,553,168.8,553.3z"/>
	<path class="st3" d="M106.1,515.7c-0.2,0.2-0.2,0.3-0.3,0.5c0.3,0.3,0.7,0.5,1,0.6c-0.1-0.4-0.2-0.6-0.3-0.9c0,0,0,0,0,0
		C106.4,515.9,106.3,515.8,106.1,515.7z"/>
	<path class="st1" d="M157.6,550.1c-0.2,0.3-0.3,0.5-0.3,0.7C157.5,550.5,157.6,550.3,157.6,550.1z"/>
	<path class="st1" d="M157,551.8c0-0.2,0-0.3-0.1-0.4C156.9,551.6,156.9,551.7,157,551.8z"/>
	<path class="st0" d="M76.5,514.8c0-0.1,0.1-0.1,0.1-0.2c-0.1-0.1-0.3-0.1-0.5-0.1C76.2,514.6,76.4,514.7,76.5,514.8z"/>
	<path class="st8" d="M102.1,499.5c0,0.2,0,0.3-0.1,0.5c-0.3,2.4,0.2,4.4,3.1,4.2c7.1,0,14,0,21-0.1c0-0.1,0-0.2-0.1-0.2
		c-6.6,0-13,0-19.5,0c-0.5,0-1,0-1.5-0.1c-2.2-0.3-2.6-0.8-2.6-3c0-0.3,0-0.5,0-0.8c0.1-1.4,0.5-2,1.6-2.2c0.3,0,0.5-0.1,0.9-0.1
		c4.4,0,8.7,0,13.1-0.1c0-0.1-0.1-0.1-0.1-0.2c-0.1-0.2-0.3-0.3-0.4-0.4c-0.5,0.1-1,0.2-1.4,0.2c-3.7,0-7.4,0-11.2,0
		C102.9,497.3,102.3,497.7,102.1,499.5z"/>
	<path class="st8" d="M122.8,507.8c0,0.1-0.1,0.1-0.1,0.2c0.2-0.1,0.3-0.1,0.5-0.2c0-0.1,0-0.1-0.1-0.2c0,0,0,0,0-0.1
		C122.9,507.6,122.8,507.7,122.8,507.8z"/>
	<path class="st3" d="M136.3,503.5c-0.1,0-0.1,0.1-0.1,0.1C136.2,503.6,136.3,503.6,136.3,503.5
		C136.3,503.5,136.3,503.5,136.3,503.5C136.3,503.5,136.3,503.5,136.3,503.5z"/>
	<path class="st7" d="M154.2,428.9c0.1-0.1,0.1-0.3,0.2-0.4c-0.2-0.1-0.3-0.1-0.5-0.2c-0.4-0.2-0.8-0.3-1.2-0.5
		c-0.3-0.1-0.6-0.2-0.8-0.3c-0.3,0-0.7-0.1-0.9,0.1c-0.2,0.3-0.2,0.7-0.3,1c0.3,0.1,0.6,0.2,0.9,0.2
		C152.4,428.9,153.3,428.9,154.2,428.9z"/>
	<path class="st7" d="M132.1,440.9C132.1,440.9,132.1,440.9,132.1,440.9c0-0.3-0.1-0.5-0.1-0.8c-0.1,0-0.2,0.1-0.3,0.2
		c-0.2,0.1-0.5,0.3-0.7,0.4c0,0,0.1,0,0.1,0C131.4,440.9,131.7,440.9,132.1,440.9z"/>
	<path class="st7" d="M149.4,426.8c0.1-0.2,0.2-0.4,0.4-0.7c0,0,0,0,0,0c-0.2-0.2-0.4-0.3-0.6-0.4c-0.1,0.4-0.1,0.8-0.2,1.2
		c0.1,0,0.2,0.1,0.4,0.1C149.2,426.9,149.3,426.8,149.4,426.8z"/>
	<path class="st7" d="M145.3,430.2c0.2,0.2,0.4,0.1,0.5-0.5c0,0,0,0-0.1,0c-0.3,0-0.6,0-0.9,0C145,429.9,145.2,430.1,145.3,430.2z"
		/>
	<path class="st7" d="M126.9,449.6c-0.4,0.7-0.1,0.8,0.6,0.8c0.1,0,0.2,0,0.3,0C127.4,449.9,127.2,449.7,126.9,449.6
		C126.9,449.5,126.9,449.6,126.9,449.6z"/>
	<path class="st7" d="M104.8,484.4c-0.1-0.2-0.1-0.3-0.2-0.5c0,0,0,0.1,0,0.1c-0.1,0.2-0.1,0.5-0.1,0.7c0.1,0,0.3,0,0.4,0
		C104.8,484.6,104.8,484.5,104.8,484.4z"/>
	<path class="st7" d="M106.2,484.6c0.1-0.2,0.2-0.4,0.2-0.6c-0.1,0-0.3,0-0.4,0C106.1,484.2,106.1,484.5,106.2,484.6
		C106.2,484.7,106.2,484.6,106.2,484.6z"/>
	<path class="st7" d="M134,439.7c-0.3-0.1-0.6-0.2-0.9-0.2c0,0.1,0,0.3,0,0.4C133.4,439.9,133.7,439.8,134,439.7
		C134,439.8,134,439.8,134,439.7z"/>
	<path class="st7" d="M89.9,491.1c0.1-0.1,0.3-0.2,0.5-0.4c0,0,0,0,0,0c-0.2-0.1-0.3-0.1-0.5-0.1C89.9,490.7,89.9,490.9,89.9,491.1z
		"/>
	<path class="st7" d="M139.4,434.9C139.4,434.8,139.4,434.8,139.4,434.9c0.1-0.2,0.1-0.4,0.1-0.5c-0.1,0-0.3,0-0.4,0.1
		c0,0,0,0.1,0.1,0.1C139.2,434.6,139.3,434.8,139.4,434.9z"/>
	<path class="st7" d="M76.9,497.1c-0.1,0.1-0.2,0.1-0.3,0.2c0,0,0,0,0.1,0c0.2,0.1,0.3,0.1,0.5,0.1c0-0.1,0-0.3-0.1-0.4
		C77,497,76.9,497.1,76.9,497.1z"/>
	<path class="st7" d="M125.7,447.8C125.7,447.8,125.6,447.8,125.7,447.8c-0.3,0.1-0.4,0.2-0.5,0.3c0.1,0.1,0.1,0.2,0.2,0.2
		C125.5,448.2,125.6,448,125.7,447.8z"/>
	<path class="st7" d="M88.4,490.3C88.5,490.3,88.5,490.3,88.4,490.3c0.1-0.2,0.1-0.3,0.2-0.4c-0.1,0-0.2,0-0.3,0
		C88.3,490,88.3,490.2,88.4,490.3z"/>
	<path class="st7" d="M97.7,488.2c0.1,0,0.1,0.1,0.2,0.1c0.1-0.1,0.1-0.3,0.1-0.5c0,0,0,0,0,0C97.8,487.9,97.8,488.1,97.7,488.2z"/>
	<path class="st8" d="M156.7,429.6c0.1-0.2,0.1-0.3,0.1-0.4c-0.3,0-0.4,0-0.6,0C156.4,429.3,156.5,429.5,156.7,429.6z"/>
	<path class="st10" d="M87.9,471.9c-0.7,0-1.2-0.1-1.9-0.2c0,0.2-0.2,0.5-0.1,0.5c0.4,0.2,0.8,0.6,1.2,0.6c0.5,0,1.1-0.2,1.6-0.4
		c0,0,0-0.5-0.1-0.5C88.5,471.8,88.3,471.9,87.9,471.9z"/>
	<path class="st10" d="M80.9,477.1c-0.2,0-0.3,0.7-0.3,1.1c0,0.1,0,0.3,0,0.5c0,0.2,0.1,0.4,0.1,0.6c0,0,0,0,0,0
		c0.2,0.1,0.5,0.1,0.6,0.1c0.2-0.6,0.4-1.2,0.7-2C81.7,477.2,81.2,477,80.9,477.1z"/>
	<path class="st10" d="M89.8,470.1C89.8,470.2,89.8,470.2,89.8,470.1c0.2,0.4,0.3,0.6,0.5,0.9c0.2-0.2,0.5-0.4,1-0.8
		C90.5,470.1,90.2,470.1,89.8,470.1z"/>
	<path class="st10" d="M95.3,470.8c-0.2-0.2-0.4-0.4-0.7-0.5c0,0,0,0.1,0,0.1c0.1,0.3,0.2,0.5,0.3,0.7
		C95.1,470.9,95.2,470.8,95.3,470.8z"/>
	<path class="st10" d="M95,472.4c0.1,0.2,0.2,0.3,0.3,0.4c0.1-0.1,0.2-0.1,0.2-0.2C95.3,472.5,95.1,472.3,95,472.4
		C94.9,472.3,95,472.3,95,472.4z"/>
	<path class="st10" d="M94.9,468.9c0-0.1,0.1-0.2,0.1-0.3c-0.1,0-0.2,0-0.4,0c0,0,0,0,0,0C94.7,468.7,94.8,468.8,94.9,468.9z"/>
	<path class="st10" d="M85.2,478.4c0.1,0.1,0.1,0.1,0.2,0.2c0,0,0,0,0-0.1C85.4,478.5,85.4,478.4,85.2,478.4
		C85.3,478.4,85.3,478.4,85.2,478.4z"/>
	<path class="st10" d="M107.5,435c-0.1,0.4-0.1,0.7-0.1,0.9C107.5,435.5,107.5,435.2,107.5,435z"/>
	<path class="st11" d="M128.9,507.2c-0.9-1-1.9-2-2.8-3c-7,0-13.9,0-21,0c-0.5,0.3-0.8,0.6-1.3,1c0.5-0.4,0.8-0.7,1.2-1
		c-2.8,0.2-3.3-1.8-3-4.2c0-0.2,0-0.3,0.1-0.5c0.3-1.8,0.9-2.2,2.8-2.2c3.7,0,7.4,0,11.2,0c0.5,0,0.9-0.1,1.4-0.3
		c-0.5-0.8-0.9-1.4-1.5-2c-1.2-0.1-1.3-1.1-1.7-1.9c-0.7-1.8-1.3-3.5-1.9-5.4c-0.7-1.7-1.3-3.4-1.2-5.2c0-0.9-0.2-1.7-0.3-2.5
		c0.2-0.9,0.2-1.8,0.3-2.7c0.1-0.6,0.1-1,0.2-1.6c0.1-1.2,0.4-2.3,0.6-3.5c0.1-0.5,0.2-0.9,0.3-1.4c0.1-0.2,0.1-0.4,0.2-0.6
		c0.2-0.7,0.5-1.5,0.8-2.2c0,0,0,0,0-0.1c0.3-0.8,0.7-1.6,1-2.4c0.9-2,2.3-3.7,3.4-5.6c0.1-0.2,0.3-0.2,0.5-0.3c0,0,0,0,0,0
		c0,0,0,0,0,0c0,0,0,0,0,0c0,0,0.1,0,0.1,0c0.6-0.7,1.2-1.4,1.9-2.1c0.1,0,0.1,0,0.1,0c0.4-0.5,0.9-1,1.4-1.6
		c1.6-1.1,3.2-2.2,4.7-3.2c-1.6,1.1-3.1,2.1-4.7,3.2c0,0,0,0.1,0.1,0.2c3.3-2.6,6.9-4.2,10.9-5.1c0.5-0.2,1.1-0.6,1.7-0.6
		c2.4-0.1,4.9-0.2,7.3,0c0.2,0,0.4,0.1,0.7,0.1c1.5,0.3,3,1,4.6,1.5c0,0.1,0,0.1,0,0.1c1.2,0.3,2.4,0.5,3.4,1
		c2.3,1.3,4.5,2.9,6.7,4.5c0.3-0.2,0.8-0.5,0.8-0.8c0-7.6,0-15.3,0-22.9c0-1-0.3-2.1-0.3-3.2c0,0,0,0,0,0.1c0,0,0-0.1,0-0.1
		c0-0.3-0.1-0.5-0.2-0.6c0,0.1-0.1,0.1-0.1,0.2c0-0.2,0-0.3-0.1-0.5c0,0,0,0,0,0c0,0,0,0,0-0.1c-0.1-0.3-0.2-0.5-0.3-0.7
		c0,0,0,0,0,0c0,0.1-0.1,0.3-0.2,0.5c0,0-0.1,0-0.1,0c-0.1-0.2-0.3-0.3-0.4-0.5c0,0,0,0,0-0.1c0,0,0,0,0,0c-0.1-0.3-0.1-0.5-0.3-0.7
		c0,0,0-0.1-0.1-0.1c-0.1-0.1-0.2-0.3-0.3-0.4c-0.1-0.1-0.1-0.1-0.2-0.2c-0.1-0.1-0.2-0.2-0.3-0.2c-0.3-0.2-0.6-0.3-0.9-0.4
		c0-0.1,0-0.1,0-0.1c-0.2-0.1-0.5-0.2-0.7-0.4c0-0.1-0.1-0.2-0.1-0.2c0,0,0,0,0.1,0.1c0.1-0.2,0.2-0.4,0.3-0.7c0-0.1,0-0.1,0-0.1
		c-1.4-0.4-2.9-0.8-4.4-1.3c-1.4-0.1-2.8-0.1-4.3-0.1c-0.6,0.1-1,0.2-1.4,0.2c0.4,0,0.9-0.1,1.2-0.2c-9.6,0-19.1,0-28.7,0.1
		c-1.3,0.4-2.5,0.8-3.8,1.3c-0.3,0.2-0.7,0.3-1,0.5c-0.5,0.6-1,1.2-1.5,1.8c-0.5,0.8-1,1.5-1.5,2.3c-0.3,1.1-0.5,2-0.8,3.1
		c0,0.6,0,1.1,0,1.7c0,0.3-0.1,0.6-0.2,1.1c-0.1,5-0.1,9.9,0,14.7c0,1.1,0.1,2.2,0.1,3.5c0.1,0.3,0.2,0.4,0.2,0.5
		c0-0.1-0.1-0.3-0.3-0.3c-0.3,0.8-0.6,1.6-0.8,2.4c0,0,0,0,0,0.1c0.2,0.5,0.3,0.9,0.4,1.2c-0.1-0.4-0.2-0.7-0.4-1.2
		c-0.2-0.1-0.3-0.1-0.3-0.1c-0.1,0.2-0.1,0.3-0.3,0.5c0,0,0,0,0,0c0,0,0,0,0,0c0,0,0,0,0,0c0,0-0.1,0-0.1,0
		c-0.3,0.3-0.5,0.6-0.9,0.8c-0.1,0-0.1,0-0.1,0c-0.2,0.1-0.4,0.2-0.7,0.3c0,0,0,0,0,0c0,0,0,0,0,0c-0.1,0-0.1,0-0.1,0
		c0,0.1,0,0.2,0,0.4c0,0-0.1,0.1-0.1,0.1c-0.1,0-0.1,0-0.1,0c-0.5,0-1.1,0-1.7,0c-0.3,0.2-0.4,0.4-0.6,0.5c0.2-0.1,0.3-0.3,0.5-0.5
		c-2-0.1-4-0.2-6-0.2c-1.2,0-2.4,0-3.6,0c-4.2,0-8.4,0-12.7,0c-0.8,0.2-1.6,0.4-2.4,0.5c-0.4,0.1-0.8,0.2-1.3,0.3c0,0,0.1,0,0.1,0
		c-0.1,0-0.1,0-0.2,0c-0.3,0-0.4,0.1-0.5,0.2c-0.3,0.3-0.6,0.5-1,0.8c0,0,0,0,0,0c0,0,0,0,0,0c0,0,0,0,0,0c-0.1,0-0.1,0-0.1,0
		c-0.3,0.3-0.5,0.6-0.9,0.8c-0.1,0-0.1,0-0.1,0c-0.2,0.3-0.4,0.5-0.7,0.8c-0.1,0-0.1,0-0.1,0c-0.1,0.2-0.1,0.3-0.2,0.5c0,0,0,0,0,0
		c0,0,0,0,0,0c-0.1,0-0.1,0-0.1,0c-0.2,0.4-0.4,0.7-0.7,1.1c-0.1,0-0.1,0-0.1,0c0,0.1-0.1,0.2-0.2,0.3c-0.1,0-0.1,0-0.1,0
		c0,0.2-0.1,0.3-0.2,0.5c-0.1,0-0.1,0-0.1,0c-0.1,0.5-0.1,1.1-0.3,1.6c-1,2.2-1,4.5-1.2,7c0,0,0,0,0,0.1c0,1.7,0.1,3.2,0.1,4.8
		c-0.1,0.2-0.1,0.3-0.1,0.5c0,0.4,0.1,0.7,0.1,1.1c-0.1,0.3-0.1,0.6,0,1c0.5-0.1,0.8-0.2,1.2-0.4c-0.3,0.1-0.7,0.3-1.1,0.5
		c-0.1,0.1-0.1,0.2-0.1,0.4c0,0,0,0,0,0s0,0,0,0c0.1,2.2,0.1,4.2,0.1,6.4c-0.1,1.1-0.1,2.1-0.1,3.3c0,1.7,0.1,3.2,0.1,4.9
		c-0.1,2-0.1,3.8-0.1,5.8c0.1,0.4,0.2,0.7,0.2,1c0,0.1,0,0.2,0,0.3c0.4,0,0.6-0.2,0.7-0.4c-0.1,0.3-0.2,0.5-0.7,0.6c0,0,0,0,0,0
		c0.1,2.7,1.1,5,2.7,7.1c0.3,0.5,0.6,1,0.9,1.5c0,0,0,0,0,0c0.1,0,0.1,0.1,0.2,0.2c0,0,0,0,0,0c0,0,0,0,0,0c0,0.1,0,0.1,0,0.1
		c0.1,0.1,0.3,0.1,0.4,0.2c0,0,0,0,0,0c0,0,0,0,0,0c0,0,0,0.1,0,0.1c0,0,0,0,0,0c0,0,0,0,0,0c0.3,0.2,0.7,0.4,1,0.7
		c0,0.1,0,0.1,0,0.1c0.3,0.1,0.5,0.2,0.8,0.4c0,0.1,0,0.1,0,0.1c0.1,0,0.2,0.1,0.3,0.2c0,0,0,0.1,0,0.1c0,0,0,0,0,0c0,0,0,0,0,0
		c0.1,0,0.3,0.1,0.5,0.2c0,0.1,0,0.1,0,0.1c0,0,0,0,0,0c0,0,0,0,0,0c0.2,0,0.5,0.1,0.7,0.2c0,0.1,0,0.1,0,0.1
		c1.1,0.2,2.1,0.4,3.2,0.5c0.6,0.1,1.3,0.2,1.9,0.2c2-0.1,3.9-0.2,5.9-0.2c1.6,0,3.2,0.2,4.8,0.2c1.5,0,2.9-0.1,4.5-0.3
		c0.3-0.8,0.6-1.6,0.8-2.5c-0.3,0.9-0.5,1.6-0.7,2.5c0,0.1,0,0.1,0,0.1c0.6,0,1.3,0.1,2,0.2c1.5,0.1,3,0.1,4.6,0.1
		c0.5-1.4,0.6-1.8,1.4-1.7c-0.8-0.1-0.9,0.3-1.2,1.7c0.5,0.2,1,0.3,1.5,0.5c0,0.3,0,0.6,0.1,0.9c0,0,0,0,0,0.1c0,0,0,0,0,0
		c0,0,0,0,0,0c0,0.1,0,0.1,0.1,0.1c0.4,1,0.9,2,0.9,3c0.1,8.2,0.1,16.4,0,24.6c0,2,0.4,3.8,1.5,5.5c0,0.1,0.1,0.2,0.1,0.2
		c0,0.1,0,0.1,0,0.2c0,0,0,0.1,0,0.1c0,0.2,0,0.4,0.1,0.6c0,0,0,0,0,0c0.3,0,0.8-0.1,0.8-0.2c0,0.1-0.5,0.1-0.8,0.2
		c0,0.2,0.1,0.2,0.2,0.4c2.6,3.3,6,4.5,10,4.5c8.8,0,17.7,0,26.5,0.1c2.5,0,4.9-0.2,7.2-1.3c4.4-2.5,6-8.4,5.1-12.2
		c-0.1-0.5-0.5-1-0.9-1.3c-2-1.6-4-3.1-6.1-4.7c-0.1,0-0.2-0.1-0.2-0.1c-2.8-2.3-5.7-4.6-8.5-6.9c-1.2-1-2.3-2-3.4-3.1
		c0-0.1,0-0.1,0-0.1c-0.4-0.3-0.9-0.7-1.4-1c0.3,0.6,0.7,1.1,1.1,1.6c-0.4-0.5-0.8-1-1.2-1.6c0-0.1,0-0.1,0-0.1
		c-0.1,0-0.2-0.1-0.3-0.2c0-0.1,0,0,0,0c-0.1-0.1-0.3-0.1-0.4-0.3c0-0.1,0-0.1,0-0.1c-0.9-0.1-1.5-0.3-1.9-1
		c-0.1-0.1-0.1-0.2-0.1-0.3c0,0,0,0,0-0.1c0-0.1-0.1-0.3-0.1-0.5c0-0.2,0-0.3,0-0.5c0-0.1,0-0.1,0-0.1c-0.5-0.4-0.9-0.9-1.4-1.4
		c-0.2-0.2-0.4-0.4-0.6-0.6c0,0,0,0,0,0c0,0,0,0,0,0c0-0.1,0-0.1,0-0.1c-0.1,0-0.2,0-0.4,0c-0.6-0.1-1-0.3-1.3-0.6
		c-0.3-0.3-0.5-0.8-0.6-1.3c0-0.1,0-0.1,0-0.1c-0.1-0.1-0.3-0.1-0.4-0.3c0-0.1,0-0.1,0-0.1c-0.1,0-0.2-0.1-0.3-0.2
		c0-0.1,0-0.1,0-0.1c-0.1-0.1-0.2-0.2-0.4-0.3c0-0.1,0-0.1,0-0.1c-0.1-0.1-0.3-0.1-0.4-0.3c0-0.1,0-0.1,0-0.1
		c-0.5-0.4-0.9-0.8-1.4-1.3c0-0.1,0-0.1,0-0.1c-0.1,0-0.1-0.1-0.2-0.2c0-0.1,0,0,0,0c-0.1-0.1-0.1-0.1-0.2-0.2c0-0.1,0,0,0,0
		c-0.1-0.1-0.2-0.2-0.3-0.4c0-0.1,0-0.1,0-0.1c-0.1-0.1-0.1-0.1-0.2-0.2c0-0.1,0,0,0,0c-0.6-0.6-1.2-1.3-1.7-2c0-0.1,0-0.1,0-0.1
		c-0.1-0.1-0.2-0.1-0.3-0.3c0-0.1,0-0.1,0-0.1c-0.4-0.5-0.9-0.9-1.3-1.5c0,0,0,0,0,0c0,0,0,0,0,0c0,0,0,0,0,0c0-0.1,0-0.1,0-0.1
		c-0.3-0.3-0.5-0.6-0.8-0.9c0,0,0,0,0,0c0,0,0,0,0,0c0,0,0,0,0,0c0-0.1,0-0.2,0-0.3c0-0.1,0.1-0.2,0.2-0.3c0.1-0.1,0.1-0.2,0.3-0.3
		c0,0,0,0,0,0.1c0,0,0.1,0,0.1-0.1c0.2,0,0.4,0,0.6,0c1.5,0,3,0,4.4,0c0.2,0,0.4,0,0.6,0c0,0,0,0,0,0c0-0.1,0.1-0.1,0.1-0.2
		C128.9,507.3,128.9,507.2,128.9,507.2z M151,427.6c0.1-0.2,0.6-0.1,0.9-0.1c0.2,0,0.5,0.2,0.8,0.3c0.5,0.2,0.9,0.3,1.2,0.5
		c0.2,0.1,0.3,0.1,0.5,0.2c-0.1,0.1-0.1,0.3-0.2,0.4c-0.9,0-1.8,0-2.7,0c-0.3,0-0.6-0.1-0.9-0.2C150.8,428.3,150.8,427.9,151,427.6z
		 M149,425.7c0.2,0.1,0.4,0.2,0.6,0.3c0,0,0,0,0,0.1c0,0,0,0,0,0c-0.1,0.3-0.2,0.5-0.4,0.7c-0.1,0.1-0.1,0.2-0.2,0.3
		c-0.1,0-0.2-0.1-0.4-0.1C148.9,426.5,149,426.1,149,425.7z M145.8,429.6C145.8,429.7,145.7,429.7,145.8,429.6
		C145.8,429.7,145.8,429.7,145.8,429.6c0,0.7-0.2,0.8-0.5,0.6c-0.1-0.1-0.3-0.3-0.5-0.5C145.1,429.7,145.4,429.7,145.8,429.6z
		 M139.5,434.3c0,0.2,0,0.3-0.1,0.5c0,0,0,0-0.1,0c0,0,0,0,0,0.1c-0.1-0.1-0.2-0.2-0.2-0.3c0,0,0-0.1-0.1-0.1
		C139.2,434.4,139.4,434.3,139.5,434.3z M133.1,439.5c0.3,0,0.6,0.1,0.9,0.2c0.4,0.4,0.7,0.8,1.1,1.1c-0.4-0.4-0.8-0.7-1.1-1.1
		c0,0,0,0,0,0.1c-0.3,0-0.6,0-0.9,0C133.1,439.8,133.1,439.6,133.1,439.5z M131.7,440.3c0.1-0.1,0.2-0.1,0.3-0.2
		c0,0.3,0.1,0.5,0.1,0.8h0c0,0,0,0,0,0c-0.4,0-0.7,0-1.1-0.1c0,0,0.1,0,0.1-0.1c0,0-0.1,0-0.1,0
		C131.2,440.6,131.4,440.5,131.7,440.3z M130.6,425.8c0.1-0.4,0.2-0.7,0.2-1.3c-0.1,0.6-0.1,1-0.1,1.3c-0.2,0.1-0.3,0.3-0.3,0.4
		C130.6,426,130.6,425.9,130.6,425.8z M128.8,427.7c0.2,0.1,0.3,0.1,0.5,0.2C129.2,427.8,129,427.8,128.8,427.7
		C128.8,427.7,128.8,427.7,128.8,427.7z M127.8,450.3c-0.1,0-0.2,0-0.3,0c-0.7,0.1-1-0.1-0.6-0.8c0,0,0,0,0.1,0c0,0,0,0,0-0.1
		C127.2,449.7,127.4,449.9,127.8,450.3z M127.2,433.5c0,0,0,0.1,0,0.1c-0.2,0.2-0.4,0.5-0.6,0.7C126.8,434.1,127,433.8,127.2,433.5z
		 M125.6,447.7C125.6,447.8,125.6,447.8,125.6,447.7C125.6,447.8,125.7,447.8,125.6,447.7c0,0.3-0.1,0.4-0.3,0.6
		c-0.1-0.1-0.1-0.2-0.2-0.2C125.3,448,125.5,447.8,125.6,447.7z M122,438.6c0.2,0,0.3-0.1,0.5-0.2
		C122.3,438.5,122.2,438.6,122,438.6C122,438.6,122,438.6,122,438.6z M119.1,441.7c-0.1,0.1-0.2,0.2-0.2,0.3c0,0,0,0,0-0.1
		C119,441.9,119,441.8,119.1,441.7z M115.8,443.7c0.1,0.1,0.3,0.2,0.4,0.3C116.1,443.9,115.9,443.8,115.8,443.7
		C115.8,443.7,115.8,443.7,115.8,443.7z M115,445.6c-0.2,0.2-0.4,0.4-0.7,0.7c0,0,0,0,0,0C114.6,446,114.8,445.8,115,445.6z
		 M113.7,449.4c0.2,0.2,0.3,0.4,0.7,0.7C114,449.7,113.9,449.6,113.7,449.4C113.7,449.4,113.7,449.4,113.7,449.4z M113.2,446.3
		c-0.1,0.1-0.2,0.2-0.2,0.4C113,446.4,113.1,446.3,113.2,446.3z M106.5,484c-0.1,0.2-0.1,0.4-0.2,0.7c0,0,0,0,0-0.1c0,0,0,0.1,0,0.1
		c-0.1-0.2-0.1-0.5-0.2-0.8C106.2,484,106.3,484,106.5,484z M104.5,484C104.5,484,104.5,484,104.5,484
		C104.6,484,104.6,484,104.5,484c0.2,0.1,0.2,0.3,0.3,0.5c0,0.1,0,0.1,0.1,0.2c-0.1,0-0.3,0-0.4,0
		C104.4,484.5,104.5,484.2,104.5,484z M70.6,494.8c0.1-0.6,0.1-1.1,0.2-1.7c0,0.1,0,0.1,0.1,0.2c0.1,0.3,0.2,0.7,0.2,1
		c0,0.2,0,0.3,0,0.5C70.9,494.8,70.8,494.8,70.6,494.8z M76.6,497.4C76.6,497.3,76.6,497.3,76.6,497.4
		C76.6,497.3,76.6,497.3,76.6,497.4c0.1-0.2,0.2-0.2,0.3-0.3c0,0,0.1,0,0.1-0.1c0,0.1,0,0.3,0.1,0.4
		C76.9,497.4,76.7,497.4,76.6,497.4z M81.3,479.3c0,0.1-0.4,0-0.5,0c0,0,0-0.1,0-0.1c0,0,0,0,0,0c0-0.2-0.1-0.4-0.1-0.6
		c0-0.2,0-0.3,0-0.5c0-0.4,0.1-1,0.3-1.1c0.3-0.1,0.8,0.2,1.1,0.3C81.7,478.1,81.5,478.7,81.3,479.3z M85.5,478.6
		c-0.1,0-0.2-0.1-0.2-0.2c0,0,0.1-0.1,0.1-0.1C85.4,478.4,85.5,478.5,85.5,478.6C85.5,478.5,85.5,478.5,85.5,478.6
		C85.5,478.5,85.5,478.6,85.5,478.6z M88.5,490.3C88.5,490.3,88.5,490.3,88.5,490.3C88.5,490.3,88.5,490.3,88.5,490.3
		c-0.2-0.1-0.2-0.3-0.2-0.4c0.1,0,0.2,0,0.3,0C88.6,490,88.5,490.2,88.5,490.3z M88.8,472.4c-0.5,0.2-1.1,0.4-1.6,0.4
		c-0.4,0-0.8-0.4-1.2-0.6c-0.1,0,0.1-0.4,0.1-0.5c0.7,0.1,1.2,0.2,1.9,0.2c0.3-0.1,0.6-0.1,0.8,0C88.8,471.9,88.9,472.4,88.8,472.4z
		 M90.4,490.6c-0.2,0.2-0.3,0.3-0.5,0.4c0-0.2-0.1-0.4-0.1-0.5C90,490.5,90.2,490.6,90.4,490.6C90.4,490.6,90.4,490.6,90.4,490.6
		C90.3,490.6,90.4,490.6,90.4,490.6z M90.3,471c-0.2-0.3-0.4-0.5-0.5-0.8c0,0,0,0,0.1,0c0,0,0,0,0-0.1c0.4-0.1,0.8,0,1.5,0
		C90.7,470.6,90.5,470.8,90.3,471z M94.6,468.6c0.1-0.1,0.3,0,0.4,0c0,0.1-0.1,0.2-0.1,0.3C94.8,468.8,94.7,468.7,94.6,468.6
		C94.6,468.6,94.6,468.6,94.6,468.6C94.6,468.6,94.6,468.6,94.6,468.6z M94.7,470.2c0.3,0.1,0.5,0.3,0.7,0.5
		c-0.1,0.1-0.2,0.2-0.4,0.3C94.9,470.8,94.7,470.5,94.7,470.2c0,0.1,0,0.1,0,0.1C94.7,470.3,94.7,470.3,94.7,470.2z M95.2,472.8
		c-0.1-0.2-0.2-0.3-0.4-0.5c0,0,0.1,0,0.1,0c0,0,0-0.1,0-0.1c0.2,0.1,0.4,0.2,0.5,0.3C95.4,472.7,95.3,472.7,95.2,472.8z
		 M97.9,488.3c-0.1,0-0.1-0.1-0.2-0.1c0.1-0.1,0.2-0.3,0.3-0.4c0,0,0,0.1,0,0.1c0,0,0,0,0,0C98,488,97.9,488.1,97.9,488.3z
		 M105.9,507.1c-0.1-0.2-0.2-0.4-0.3-0.6c0.2,0,0.4,0,0.6,0c0,0,0,0,0,0.1c0,0,0,0,0.1,0C106.1,506.8,106,507,105.9,507.1z
		 M133.5,525.7C133.5,525.7,133.5,525.7,133.5,525.7C133.5,525.7,133.5,525.7,133.5,525.7c0.1,0.1,0.1,0.2,0.1,0.3c0,0-0.1,0-0.1,0
		C133.5,525.9,133.5,525.8,133.5,525.7z M116.1,545.7c-0.3,0.1-0.5,0.1-0.8,0.1c-0.1,0-0.2,0-0.3,0c0-0.2,0.1-0.4,0.1-0.5
		C115.4,545.4,115.8,545.5,116.1,545.7C116.1,545.6,116,545.6,116.1,545.7C116,545.7,116,545.7,116.1,545.7z M119.8,543.4
		c-0.2-0.1-0.4-0.2-0.7-0.3c0,0,0.1,0,0.1,0c0,0,0,0-0.1,0c0.3,0,0.5,0,0.7,0C119.9,543.1,119.8,543.3,119.8,543.4z M121.2,539
		c0-0.1,0-0.2,0-0.3c0,0,0,0,0,0.1c0,0,0,0,0-0.1c0.1,0.1,0.1,0.2,0.1,0.3C121.4,539,121.3,539,121.2,539z"/>
	<path class="st2" d="M133.4,520.2c0.5,0.5,1,0.9,1.4,1.3c-0.3-1.1-0.6-2.1-2-1.9c0,0,0,0,0,0C132.9,519.8,133.2,520,133.4,520.2z"
		/>
	<path class="st2" d="M128.6,515.2c0,0.1,0.1,0.1,0.2,0.2c0.1,0,0.1,0,0.1-0.1C128.8,515.2,128.8,515.2,128.6,515.2
		C128.6,515.2,128.6,515.2,128.6,515.2z"/>
	<path class="st8" d="M106.5,515.8c-0.1-0.3-0.1-0.6-0.2-0.9c-0.4-0.2-0.9-0.3-1.5-0.5c-1.7,0-3.1,0-4.6,0c-0.6,0-1.2-0.1-1.9-0.2
		c0,0-0.1,0-0.1,0c0,0,0,0,0,0c0,0,0,0,0,0c-0.1-0.1-0.1-0.1-0.2-0.1c-1.6,0.1-3.1,0.2-4.5,0.2c-1.6,0-3.2-0.2-4.8-0.2
		c-2,0-3.9,0.2-5.9,0.2c-0.6,0-1.3-0.1-1.9-0.2c-1.1-0.2-2.1-0.3-3.2-0.4c1.7,0.4,3.3,0.9,4.9,0.9c6.9,0.1,13.8,0,20.7,0.1
		c1,0,2.1-0.1,2.8,0.9C106.3,515.8,106.4,515.9,106.5,515.8C106.5,515.9,106.5,515.9,106.5,515.8
		C106.5,515.8,106.5,515.8,106.5,515.8z"/>
	<path class="st8" d="M74.4,511.7c0.4,0.3,0.7,0.5,1,0.6C75.1,512,74.7,511.8,74.4,511.7z"/>
	<path class="st8" d="M75.4,512.5c0.3,0.2,0.5,0.3,0.7,0.4C75.9,512.6,75.7,512.5,75.4,512.5z"/>
	<path class="st8" d="M77,513.4c0.3,0.1,0.5,0.2,0.7,0.2C77.4,513.5,77.2,513.4,77,513.4z"/>
	<path class="st8" d="M76.5,513.2c0.2,0.1,0.3,0.2,0.4,0.1C76.7,513.2,76.6,513.2,76.5,513.2z"/>
	<path class="st8" d="M76.2,513c0.1,0.1,0.2,0.1,0.3,0.1C76.3,513,76.2,512.9,76.2,513z"/>
	<path class="st8" d="M134.9,522.6c0,0.1,0.1,0.2,0.1,0.3c0.4,0.7,1,0.9,1.9,0.9c-0.7-0.7-1.4-1.2-2.1-1.7
		C134.8,522.2,134.9,522.4,134.9,522.6C134.9,522.5,134.9,522.6,134.9,522.6z"/>
	<path class="st8" d="M132.3,519.4c-0.6-0.7-1.2-1.3-1.8-1.8c0.1,0.6,0.3,1,0.6,1.3C131.3,519.2,131.7,519.3,132.3,519.4z"/>
	<path class="st8" d="M125.3,511.5c-0.2-0.1-0.3-0.2-0.4-0.2c0.6,0.7,1.2,1.4,1.7,1.9C126.2,512.6,125.8,512.1,125.3,511.5z"/>
	<path class="st8" d="M123.4,509.3c0.4,0.6,0.8,1,1.3,1.4C124.2,510.2,123.8,509.7,123.4,509.3C123.4,509.3,123.4,509.3,123.4,509.3
		C123.4,509.3,123.4,509.3,123.4,509.3z"/>
	<path class="st8" d="M115,545.8c0.1,0,0.2,0,0.3,0c0.3,0,0.5,0,0.8-0.1c0,0-0.1,0-0.1,0c-0.3-0.2-0.6-0.3-0.9-0.4
		C115,545.4,115,545.6,115,545.8z"/>
	<path class="st8" d="M128.8,515.5c-0.1-0.1-0.2-0.1-0.3-0.2c-0.3-0.2-0.6-0.4-0.8-0.5c0.5,0.5,0.9,0.9,1.4,1.3
		C129,515.7,128.9,515.6,128.8,515.5z"/>
	<path class="st7" d="M105.6,506.5c0.1,0.2,0.2,0.4,0.3,0.6c0.1-0.1,0.2-0.3,0.3-0.5c0,0,0,0-0.1,0
		C105.9,506.5,105.7,506.5,105.6,506.5z"/>
	<path class="st8" d="M122.6,508.3c0.3,0.4,0.5,0.6,0.8,0.8C123.1,508.8,122.8,508.5,122.6,508.3
		C122.6,508.3,122.6,508.3,122.6,508.3C122.6,508.3,122.6,508.3,122.6,508.3z"/>
	<path class="st7" d="M98.2,514.2C98.2,514.2,98.2,514.2,98.2,514.2C98.2,514.2,98.2,514.2,98.2,514.2c0.7,0.1,1.3,0.1,1.9,0.1
		C99.4,514.2,98.8,514.2,98.2,514.2z"/>
	<path class="st8" d="M119.2,543C119.2,543,119.3,543,119.2,543c0.2,0.2,0.4,0.3,0.6,0.3c0-0.1,0.1-0.2,0.1-0.3
		C119.7,543,119.5,543,119.2,543z"/>
	<path class="st8" d="M133.6,526c0-0.1,0-0.2-0.1-0.3c0,0,0,0,0,0.1c0,0.1,0,0.2,0,0.2C133.5,526,133.6,526,133.6,526z"/>
	<path class="st8" d="M121.3,538.7c0,0.1,0,0.2,0,0.2c0,0,0.1,0,0.1,0C121.4,538.9,121.4,538.8,121.3,538.7
		C121.3,538.7,121.3,538.7,121.3,538.7z"/>
	<path class="st8" d="M129.1,516.1c0.1,0.2,0.3,0.2,0.4,0.2C129.3,516.2,129.2,516.1,129.1,516.1z"/>
	<path class="st8" d="M127.2,514c-0.1-0.2-0.2-0.3-0.3-0.4C127,513.9,127.1,514,127.2,514z"/>
	<path class="st8" d="M129.8,516.7c-0.1-0.2-0.2-0.3-0.3-0.3C129.6,516.6,129.7,516.7,129.8,516.7z"/>
	<path class="st8" d="M130.1,517.1c0.1,0.2,0.3,0.2,0.4,0.2C130.3,517.2,130.2,517.1,130.1,517.1z"/>
	<path class="st8" d="M137,524c0.1,0.1,0.3,0.2,0.4,0.2C137.2,524.1,137.1,524,137,524z"/>
	<path class="st8" d="M124.9,511.2c-0.1-0.2-0.2-0.2-0.3-0.2C124.8,511.1,124.9,511.2,124.9,511.2z"/>
	<path class="st8" d="M137.4,524.3c0.1,0.1,0.2,0.2,0.2,0.1C137.5,524.4,137.4,524.3,137.4,524.3z"/>
	<path class="st8" d="M130,517c-0.1-0.1-0.1-0.2-0.2-0.1C129.9,517,130,517,130,517z"/>
	<path class="st8" d="M127.5,514.4c0.1,0.1,0.2,0.2,0.2,0.1C127.6,514.4,127.5,514.4,127.5,514.4z"/>
	<path class="st8" d="M126.7,513.4c0.1,0.1,0.2,0.2,0.2,0.1C126.8,513.4,126.8,513.4,126.7,513.4z"/>
	<path class="st8" d="M127.2,514.1c0.1,0.1,0.2,0.2,0.2,0.2C127.3,514.2,127.3,514.1,127.2,514.1z"/>
</g>
</svg>
